<?xml version="1.0" encoding="UTF-8"?>
<svg width="120px" height="27px" viewBox="0 0 120 27" version="1.1" xmlns="http://www.w3.org/2000/svg" xmlns:xlink="http://www.w3.org/1999/xlink">
    <title>navBorder</title>
    <g id="Page-1" stroke="none" stroke-width="1" fill="none" fill-rule="evenodd">
        <g id="navBorder" transform="translate(0.000000, 0.005979)" fill="#000000" fill-rule="nonzero">
            <path d="M60,26.5338636 C27,26.5338636 0,26.4283108 0,26.2991708 C0,26.1700307 0.952923833,25.9008415 2.11783784,25.7009398 C3.28275184,25.5013329 5.66800983,24.8621192 7.4187715,24.2803993 C9.16923833,23.6989742 11.9690418,22.4627088 13.6399017,21.5336671 C15.3110565,20.6043305 18.614742,18.5784828 20.9811302,17.0317506 C23.3475184,15.4850184 26.9917445,12.9661978 29.0792138,11.4339128 C31.166683,9.9019226 34.002457,7.97396191 35.3808354,7.14988328 C36.7592138,6.32550982 39.0810811,5.03912161 40.5405405,4.29081694 C42,3.54280712 44.5872236,2.48285626 46.2899263,1.93533783 C47.992629,1.38811424 50.6364619,0.728556502 52.164914,0.469391883 C53.9442752,0.167770261 56.7025061,-0.00117322776 59.8307617,8.37986519e-15 C62.5878133,0.000890654305 65.9380835,0.187229721 67.5184275,0.427229721 C69.0589681,0.661038074 71.5135135,1.19263513 72.972973,1.60835994 C74.4324324,2.02378992 77.5335627,3.31401105 79.8642752,4.47509213 C82.1949877,5.63617321 85.6446192,7.624871 87.5301229,8.89445331 C89.4156265,10.1637408 92.2186732,12.1317997 93.7592138,13.2672297 C95.2997543,14.4029545 98.3513514,16.4862961 100.540541,17.8971069 C102.72973,19.3079177 105.847666,21.1530282 107.469287,21.997156 C109.090909,22.8415786 111.611794,23.9271806 113.071253,24.4098341 C114.530713,24.8924877 116.68688,25.4638882 117.862408,25.6797113 C119.037936,25.8955344 120,26.1759275 120,26.3030037 C120,26.4300798 93,26.5338636 60,26.5338636 Z" id="Path"></path>
        </g>
    </g>
</svg>