<?xml version="1.0" encoding="UTF-8"?>
<svg width="100px" height="28px" viewBox="0 0 100 28" version="1.1" xmlns="http://www.w3.org/2000/svg" xmlns:xlink="http://www.w3.org/1999/xlink">
    <title>NavBorderBlock</title>
    <g id="NavBorderBlock" stroke="none" stroke-width="1" fill="none" fill-rule="evenodd">
        <g id="navBorder" transform="translate(0.000000, 6.000000)" fill="#000000" fill-rule="nonzero">
            <path d="M50,22.111553 C22.5,22.111553 0,22.0235923 0,21.9159756 C0,21.8083589 0.794103194,21.5840346 1.76486486,21.4174498 C2.73562654,21.2511108 4.72334152,20.7184326 6.18230958,20.233666 C7.64103194,19.7491452 9.97420147,18.718924 11.3665848,17.9447226 C12.7592138,17.1702754 15.512285,15.482069 17.4842752,14.1931255 C19.4562654,12.904182 22.4931204,10.8051648 24.2326781,9.52826064 C25.9722359,8.25160216 28.3353808,6.64496826 29.4840295,5.95823607 C30.6326781,5.27125818 32.5675676,4.19926801 33.7837838,3.57568079 C35,2.95233926 37.1560197,2.06904688 38.5749386,1.61278152 C39.9938575,1.15676187 42.1970516,0.607130418 43.4707617,0.391159902 C44.9535627,0.139808551 47.2520885,-0.000977689799 49.8589681,6.98322099e-15 C52.1565111,0.000742211921 54.9484029,0.156024767 56.2653563,0.356024767 C57.54914,0.550865062 59.5945946,0.993862605 60.8108108,1.34029995 C62.027027,1.6864916 64.6113022,2.76167587 66.5535627,3.72924344 C68.4958231,4.69681101 71.370516,6.35405917 72.941769,7.41204442 C74.5130221,8.46978398 76.8488943,10.1098331 78.1326781,11.0560248 C79.4164619,12.0024621 81.9594595,13.73858 83.7837838,14.9142557 C85.6081081,16.0899314 88.2063882,17.6275235 89.5577396,18.3309633 C90.9090909,19.0346488 93.009828,19.9393172 94.2260442,20.3415285 C95.4422604,20.7437398 97.2390663,21.2199068 98.2186732,21.3997594 C99.1982801,21.579612 100,21.8132729 100,21.9191697 C100,22.0250665 77.5,22.111553 50,22.111553 Z" id="Path"></path>
        </g>
    </g>
</svg>