<?xml version="1.0" encoding="UTF-8"?>
<svg width="74px" height="17px" viewBox="0 0 74 17" version="1.1" xmlns="http://www.w3.org/2000/svg" xmlns:xlink="http://www.w3.org/1999/xlink">
    <title>navBorder</title>
    <g id="Page-1" stroke="none" stroke-width="1" fill="none" fill-rule="evenodd">
        <g id="NavBorderBlock" transform="translate(0.000000, -1.000000)" fill="#000000" fill-rule="nonzero">
            <g id="navBorder" transform="translate(0.000000, 1.000000)">
                <path d="M37,17 C16.65,17 0,16.9323733 0,16.8496345 C0,16.7668956 0.587636364,16.5944286 1.306,16.4663534 C2.02436364,16.3384672 3.49527273,15.9289288 4.57490909,15.5562263 C5.65436364,15.1837127 7.38090909,14.3916489 8.41127273,13.7964205 C9.44181818,13.2010032 11.4790909,11.9030614 12.9383636,10.9120844 C14.3976364,9.92110749 16.6449091,8.3073225 17.9321818,7.32560172 C19.2194545,6.34406985 20.9681818,5.10884334 21.8181818,4.58086382 C22.6681818,4.05269539 24.1,3.22851842 25,2.74908657 C25.9,2.26984362 27.4954545,1.59074294 28.5454545,1.23995297 C29.5954545,0.889351903 31.2258182,0.466779385 32.1683636,0.30073502 C33.2656364,0.107488848 34.9665455,-0.000751676129 36.8956364,0 C38.5958182,0.000570633942 40.6618182,0.119956343 41.6363636,0.273722114 C42.5863636,0.423520955 44.1,0.764110249 45,1.03046128 C45.9,1.2966234 47.8123636,2.1232561 49.2496364,2.86714997 C50.6869091,3.61104383 52.8141818,4.88518403 53.9769091,5.69859363 C55.1396364,6.51181432 56.8681818,7.77273143 57.8181818,8.50019087 C58.7681818,9.22783921 60.65,10.5626168 62,11.4665102 C63.35,12.3704035 65.2727273,13.5525487 66.2727273,14.0933736 C67.2727273,14.6343873 68.8272727,15.3299224 69.7272727,15.639154 C70.6272727,15.9483857 71.9569091,16.3144767 72.6818182,16.4527525 C73.4067273,16.5910284 74,16.7706737 74,16.8520902 C74,16.9335067 57.35,17 37,17 Z" id="Path"></path>
            </g>
        </g>
    </g>
</svg>